After three years of fighting in the Clone Wars, Anakin Skywalker concludes his journey towards the Dark Side of the Force, putting his friendship with Obi Wan Kenobi and his marriage at risk.

Director:
George Lucas
Writer:
George Lucas
Stars:
Hayden Christensen, Natalie Portman and Ewan McGregor 

Media info:

General
Complete name                    : E:\torrent2\Star Wars Sixtology.BluRayrip.mkv.1080p.DTS-5.1\Star.Wars.Episode.3.Revenge.of.the.Sith.2005.BluRayrip.mkv.1080p.AVC.DTS-5.1-ACB-Team\Star.Wars.Episode.3.Revenge.of.the.Sith.2005.BluRayrip.mkv.1080p.AVC.DTS-5.1-ACB-Team.mkv
Format                           : Matroska
File size                        : 13.2 GiB
Duration                         : 2h 20mn
Overall bit rate                 : 13.5 Mbps
Encoded date                     : UTC 2011-09-18 04:38:54
Writing application              : mkvmerge v3.2.0 ('Beginnings') built on Feb 12 2010 16:46:17
Writing library                  : libebml v0.7.9 + libmatroska v0.8.1

Video
ID                               : 1
Format                           : AVC
Format/Info                      : Advanced Video Codec
Format profile                   : High@L4.1
Format settings, CABAC           : Yes
Format settings, ReFrames        : 2 frames
Format settings, GOP             : M=4, N=16
Muxing mode                      : Container profile=Unknown@0.0
Codec ID                         : V_MPEG4/ISO/AVC
Duration                         : 2h 20mn
Bit rate mode                    : Variable
Bit rate                         : 11.8 Mbps
Maximum bit rate                 : 35.0 Mbps
Width                            : 1 920 pixels
Height                           : 1 080 pixels
Display aspect ratio             : 16:9
Frame rate                       : 23.976 fps
Color space                      : YUV
Chroma subsampling               : 4:2:0
Bit depth                        : 8 bits
Scan type                        : Progressive
Bits/(Pixel*Frame)               : 0.238
Stream size                      : 11.5 GiB (87%)
Writing library                  : x264 core 116 r2057 0ba8a9c
Encoding settings                : cabac=1 / ref=1 / deblock=1:0:0 / analyse=0x3:0x3 / me=dia / subme=1 / psy=1 / psy_rd=1.00:0.00 / mixed_ref=0 / me_range=16 / chroma_me=1 / trellis=0 / 8x8dct=1 / cqm=0 / deadzone=21,11 / fast_pskip=1 / chroma_qp_offset=0 / threads=3 / sliced_threads=0 / slices=4 / nr=0 / decimate=1 / interlaced=0 / bluray_compat=1 / constrained_intra=0 / bframes=3 / b_pyramid=0 / b_adapt=1 / b_bias=0 / direct=1 / weightb=1 / open_gop=0 / weightp=1 / keyint=24 / keyint_min=1 / scenecut=40 / intra_refresh=0 / rc_lookahead=0 / rc=abr / mbtree=0 / bitrate=11849 / ratetol=1.0 / qcomp=0.60 / qpmin=0 / qpmax=69 / qpstep=4 / vbv_maxrate=35000 / vbv_bufsize=30000 / nal_hrd=vbr / ip_ratio=1.10 / pb_ratio=1.10 / aq=1:1.00

Audio
ID                               : 2
Format                           : DTS
Format/Info                      : Digital Theater Systems
Format profile                   : ES
Codec ID                         : A_DTS
Duration                         : 2h 20mn
Bit rate mode                    : Constant
Bit rate                         : 1 510 Kbps
Channel(s)                       : 7 channels
Channel positions                : Front: L C R, Side: L R, Back: C, LFE
Sampling rate                    : 48.0 KHz
Bit depth                        : 24 bits
Stream size                      : 1.48 GiB (11%)
Language                         : English

Text #1
ID                               : 3
Format                           : VobSub
Muxing mode                      : zlib
Codec ID                         : S_VOBSUB
Codec ID/Info                    : The same subtitle format used on DVDs
Language                         : English

Text #2
ID                               : 4
Format                           : VobSub
Muxing mode                      : zlib
Codec ID                         : S_VOBSUB
Codec ID/Info                    : The same subtitle format used on DVDs
Language                         : Japanese

Text #3
ID                               : 5
Format                           : VobSub
Muxing mode                      : zlib
Codec ID                         : S_VOBSUB
Codec ID/Info                    : The same subtitle format used on DVDs
Language                         : Chinese

Text #4
ID                               : 6
Format                           : VobSub
Muxing mode                      : zlib
Codec ID                         : S_VOBSUB
Codec ID/Info                    : The same subtitle format used on DVDs
Language                         : Korean

Text #5
ID                               : 7
Format                           : VobSub
Muxing mode                      : zlib
Codec ID                         : S_VOBSUB
Codec ID/Info                    : The same subtitle format used on DVDs
Language                         : Thai

Text #6
ID                               : 8
Format                           : UTF-8
Codec ID                         : S_TEXT/UTF8
Codec ID/Info                    : UTF-8 Plain Text
Language                         : Dutch

Menu
00:00:00.000                     : en:00:00:00.000
00:00:23.523                     : en:00:00:23.523
00:01:50.068                     : en:00:01:50.068
00:08:28.132                     : en:00:08:28.132
00:11:23.349                     : en:00:11:23.349
00:18:33.737                     : en:00:18:33.737
00:23:40.460                     : en:00:23:40.460
00:27:37.697                     : en:00:27:37.697
00:29:12.959                     : en:00:29:12.959
00:33:18.913                     : en:00:33:18.913
00:35:45.434                     : en:00:35:45.434
00:36:47.997                     : en:00:36:47.997
00:38:21.465                     : en:00:38:21.465
00:40:17.456                     : en:00:40:17.456
00:41:18.601                     : en:00:41:18.601
00:42:41.058                     : en:00:42:41.058
00:48:01.587                     : en:00:48:01.587
00:50:20.517                     : en:00:50:20.517
00:52:24.933                     : en:00:52:24.933
00:53:58.026                     : en:00:53:58.026
00:56:26.466                     : en:00:56:26.466
01:00:56.277                     : en:01:00:56.277
01:01:56.546                     : en:01:01:56.546
01:05:26.047                     : en:01:05:26.047
01:07:40.598                     : en:01:07:40.598
01:09:06.976                     : en:01:09:06.976
01:10:52.998                     : en:01:10:52.998
01:15:19.223                     : en:01:15:19.223
01:19:15.250                     : en:01:19:15.250
01:20:37.457                     : en:01:20:37.457
01:24:20.597                     : en:01:24:20.597
01:27:56.521                     : en:01:27:56.521
01:29:57.391                     : en:01:29:57.391
01:33:40.406                     : en:01:33:40.406
01:36:39.460                     : en:01:36:39.460
01:38:35.534                     : en:01:38:35.534
01:41:24.369                     : en:01:41:24.369
01:42:57.004                     : en:01:42:57.004
01:48:18.783                     : en:01:48:18.783
01:50:59.444                     : en:01:50:59.444
01:52:44.007                     : en:01:52:44.007
01:54:22.855                     : en:01:54:22.855
01:56:54.924                     : en:01:56:54.924
02:02:20.875                     : en:02:02:20.875
02:03:32.863                     : en:02:03:32.863
02:05:19.637                     : en:02:05:19.637
02:07:37.107                     : en:02:07:37.107
02:08:57.062                     : en:02:08:57.062
02:12:04.958                     : en:02:12:04.958
02:13:47.352                     : en:02:13:47.352

